<?xml version="1.0" encoding="UTF-8" standalone="no"?>
<!-- Created with Inkscape (http://www.inkscape.org/) -->

<svg
   xmlns:dc="http://purl.org/dc/elements/1.1/"
   xmlns:cc="http://creativecommons.org/ns#"
   xmlns:rdf="http://www.w3.org/1999/02/22-rdf-syntax-ns#"
   xmlns:svg="http://www.w3.org/2000/svg"
   xmlns="http://www.w3.org/2000/svg"
   xmlns:sodipodi="http://sodipodi.sourceforge.net/DTD/sodipodi-0.dtd"
   xmlns:inkscape="http://www.inkscape.org/namespaces/inkscape"
   width="80.415405mm"
   height="72.31881mm"
   viewBox="0 0 80.415405 72.31881"
   version="1.1"
   id="svg8"
   sodipodi:docname="scalablytyped.svg"
   inkscape:version="0.92.4 (5da689c313, 2019-01-14)">
  <defs
     id="defs2" />
  <sodipodi:namedview
     id="base"
     pagecolor="#ffffff"
     bordercolor="#666666"
     borderopacity="1.0"
     inkscape:pageopacity="0.0"
     inkscape:pageshadow="2"
     inkscape:zoom="1.4"
     inkscape:cx="49.367592"
     inkscape:cy="193.24762"
     inkscape:document-units="mm"
     inkscape:current-layer="layer1"
     showgrid="false"
     inkscape:window-width="1432"
     inkscape:window-height="1056"
     inkscape:window-x="2247"
     inkscape:window-y="0"
     inkscape:window-maximized="0"
     fit-margin-top="0"
     fit-margin-left="0"
     fit-margin-right="0"
     fit-margin-bottom="0" />
  <metadata
     id="metadata5">
    <rdf:RDF>
      <cc:Work
         rdf:about="">
        <dc:format>image/svg+xml</dc:format>
        <dc:type
           rdf:resource="http://purl.org/dc/dcmitype/StillImage" />
        <dc:title></dc:title>
      </cc:Work>
    </rdf:RDF>
  </metadata>
  <g
     inkscape:label="Layer 1"
     inkscape:groupmode="layer"
     id="layer1"
     transform="translate(-34.271133,-115.85649)">
    <g
       id="g933"
       inkscape:export-xdpi="20.219999"
       inkscape:export-ydpi="20.219999">
      <path
         inkscape:connector-curvature="0"
         style="font-style:normal;font-variant:normal;font-weight:normal;font-stretch:normal;font-size:45.06438828px;line-height:1.25;font-family:Zapfino;-inkscape-font-specification:Zapfino;font-variant-ligatures:normal;font-variant-caps:normal;font-variant-numeric:normal;font-feature-settings:normal;text-align:start;letter-spacing:0px;word-spacing:0px;writing-mode:lr-tb;text-anchor:start;fill:#7e0a1d;fill-opacity:1;stroke:#7e0a1d;stroke-width:1.12699997;stroke-miterlimit:4;stroke-dasharray:none;stroke-opacity:1"
         d="m 73.048253,116.91483 c -1.802575,0 -3.454657,0.22528 -4.956802,0.67593 -1.427041,0.45064 -2.704166,0.9763 -3.830775,1.57716 -1.051502,0.60086 -1.990186,1.27723 -2.816366,2.0283 -0.751072,0.67597 -1.35183,1.27673 -1.802474,1.80247 -1.276826,1.50215 -2.366213,3.22932 -3.2675,5.18212 -0.82618,1.95278 -1.2392,3.90576 -1.2392,5.85856 0,1.95189 0.375123,3.67889 1.125511,5.18056 -0.298257,0.1927 -0.591807,0.3978 -0.877983,0.62373 -1.427038,1.12661 -2.74171,2.51586 -3.943427,4.16822 -1.126611,1.57726 -2.140389,3.34249 -3.041676,5.29529 -0.901287,1.87768 -1.68978,3.83014 -2.365746,5.85804 0.150215,0.45064 0.300403,0.75101 0.450618,0.90123 0.225321,0.0751 0.413059,-0.0375 0.563274,-0.33796 1.577252,-3.83047 3.304945,-6.87232 5.182629,-9.12554 1.677725,-2.08038 3.535802,-3.7092 5.573302,-4.89014 0.571199,0.84408 1.221357,1.74036 1.952853,2.69131 1.727467,2.17811 2.891435,3.94335 3.492293,5.29528 0.600858,1.27683 0.901237,2.55343 0.901237,3.83026 0,2.62875 -0.826039,4.91965 -2.478402,6.87245 -1.577253,1.87768 -3.53023,3.34203 -5.858558,4.39353 -1.126609,0.52575 -2.403218,0.93877 -3.830256,1.2392 -1.351931,0.22532 -2.704153,0.33796 -4.056084,0.33796 -3.605151,0 -6.271008,-0.78849 -7.998478,-2.36575 -1.727467,-1.65236 -2.591573,-3.52972 -2.591573,-5.63273 0,-0.67596 0.112644,-1.35233 0.337966,-2.0283 0,-0.37553 -0.112644,-0.56327 -0.337966,-0.56327 -0.225321,0 -0.337962,0.0751 -0.337962,0.22531 -0.30043,1.0515 -0.675902,2.40372 -1.126546,4.05608 -0.375539,1.57726 -0.713462,3.00405 -1.013894,4.28088 0.07511,0.22532 0.262845,0.4506 0.563274,0.67593 0.300429,0.15021 0.638355,0.33795 1.013891,0.56327 1.427039,0.67597 2.966996,1.1646 4.619358,1.46503 1.727467,0.30043 3.454644,0.45061 5.182111,0.45061 4.130902,0 7.886152,-0.75146 11.265979,-2.25361 1.351934,-0.60085 2.704153,-1.38935 4.056084,-2.36574 1.427038,-1.05151 2.703647,-2.21547 3.830256,-3.49229 1.201719,-1.27683 2.140916,-2.6666 2.816884,-4.16874 0.751073,-1.50215 1.126545,-3.04159 1.126545,-4.61884 0,-0.90129 -0.07509,-1.65223 -0.225308,-2.2531 -0.150215,-0.67596 -0.413046,-1.35233 -0.788583,-2.02829 -0.375536,-0.75107 -0.901716,-1.53956 -1.577681,-2.36575 -0.600858,-0.90129 -1.389354,-1.99017 -2.365748,-3.26698 -0.293349,-0.37964 -0.579991,-0.76827 -0.861446,-1.16376 1.038034,-0.2487 2.120537,-0.44266 3.249414,-0.58032 3.154508,-0.37555 6.759567,-0.56379 10.815359,-0.56379 h 3.718121 c 0.751073,0 0.93881,0.33844 0.563274,1.0144 -1.577255,3.0043 -3.304947,6.15879 -5.182629,9.46351 -1.877685,3.22961 -3.830145,6.57184 -5.858042,10.02678 -1.952789,3.37982 -3.980862,6.79714 -6.083866,10.25208 -2.027899,3.45494 -4.05597,6.83471 -6.083866,10.13944 -0.525751,0.82618 -0.938771,1.61467 -1.2392,2.36574 -0.300429,0.75108 -0.45062,1.42693 -0.45062,2.02779 0,0.9764 0.225285,1.72786 0.675929,2.25361 0.525751,0.52575 1.164055,0.90122 1.915128,1.12654 0.82618,0.30043 1.727832,0.45062 2.704227,0.45062 1.051504,0.0751 2.140376,0.11265 3.266985,0.11265 1.351931,0 2.816275,-0.0375 4.39353,-0.11265 1.577253,0 3.004569,-0.0751 4.281393,-0.22531 0.450643,-0.30043 0.563284,-0.60081 0.337962,-0.90124 -0.375536,0.0751 -0.826103,0.11266 -1.351854,0.11266 h -1.351857 c -1.652359,0 -3.004581,-0.11264 -4.056083,-0.33796 -0.976395,-0.30043 -1.72734,-0.63836 -2.253091,-1.0139 -0.525751,-0.45064 -0.863677,-0.93927 -1.013891,-1.46502 -0.150215,-0.60086 -0.225312,-1.20162 -0.225312,-1.80248 0.07511,-0.90128 0.300392,-1.87751 0.675929,-2.92902 0.450643,-1.12661 1.013854,-2.32812 1.689819,-3.60494 2.929187,-5.33263 6.15877,-11.04085 9.688814,-17.12454 3.605152,-6.0837 7.510587,-12.31758 11.716597,-18.7017 0.525751,-0.75108 1.314762,-1.12706 2.366264,-1.12706 1.126609,-0.0751 2.403218,-0.0751 3.830259,0 1.427038,0 2.779257,-0.0376 4.056085,-0.11266 3.605148,-0.15021 6.646988,-0.67588 9.125528,-1.57716 2.55365,-0.90129 4.46856,-2.40318 5.74539,-4.50619 0.30043,-0.60086 0.45062,-1.12652 0.45062,-1.57716 0,-0.60086 -0.11264,-1.05194 -0.33797,-1.35238 -0.45064,-0.97639 -1.12649,-1.95262 -2.02778,-2.92902 -0.15021,-0.15021 -0.26285,-0.22531 -0.33796,-0.22531 -0.22532,0 -0.33797,0.1502 -0.33797,0.45062 0,0.15022 0.0376,0.26286 0.11266,0.33797 0.0751,0.15022 0.11265,0.41305 0.11265,0.78858 0,1.42704 -0.5632,2.74172 -1.68982,3.94343 -1.1266,1.20172 -2.25354,2.10285 -3.38015,2.70371 -3.60515,1.95279 -8.411718,2.96657 -14.420305,3.04167 h -4.844664 -6.53397 c -2.178111,-0.0751 -4.356372,-0.11265 -6.534483,-0.11265 h -6.985103 c -1.53865,-0.0496 -2.976751,0.002 -4.318601,0.14883 -0.423526,-0.68655 -0.831516,-1.39402 -1.223698,-2.12235 -1.051501,-1.9528 -1.577165,-4.05597 -1.577165,-6.30918 3e-6,-2.92919 0.938683,-5.25712 2.816368,-6.98459 1.877682,-1.80258 4.318772,-2.70422 7.323066,-2.70422 2.854079,0 4.919181,0.60127 6.196004,1.80299 1.351931,1.20171 2.028301,2.47832 2.028301,3.83025 0,0.67597 -0.112643,1.23918 -0.337965,1.68982 0.225322,0.37554 0.488153,0.48818 0.788583,0.33797 0.225321,-0.82618 0.5257,-1.83996 0.901236,-3.04168 0.450644,-1.20171 0.826117,-2.17794 1.126546,-2.92902 0,-0.52575 -0.187738,-1.05193 -0.563271,-1.57768 -0.90129,-0.97639 -1.915584,-1.6147 -3.042193,-1.91513 -1.126609,-0.37554 -2.290577,-0.56327 -3.492293,-0.56327 z"
         id="path929" />
      <path
         id="path924"
         transform="scale(0.26458333)"
         d="m 280.08789,437.88281 c -6.81288,0 -13.05697,0.85146 -18.73437,2.55469 -5.39354,1.70321 -10.22047,3.68997 -14.47852,5.96094 -3.97418,2.27096 -7.52196,4.82731 -10.64453,7.66601 -2.8387,2.55484 -5.10928,4.82543 -6.8125,6.8125 -4.8258,5.67741 -8.94317,12.2053 -12.34961,19.58594 -3.12257,7.38061 -4.68359,14.76194 -4.68359,22.14258 0,7.37724 1.41779,13.90449 4.2539,19.58008 -1.12727,0.72832 -2.23675,1.50352 -3.31836,2.35742 -5.39353,4.25806 -10.36237,9.50876 -14.90429,15.75391 -4.25806,5.96127 -8.08966,12.63303 -11.4961,20.01367 -3.40644,7.09674 -6.38657,14.47612 -8.9414,22.14062 0.56774,1.70321 1.13538,2.83849 1.70312,3.40625 0.85161,0.28387 1.56117,-0.14185 2.12891,-1.27734 5.96127,-14.47738 12.49113,-25.97413 19.58789,-34.49024 6.34101,-7.86285 13.36366,-14.01902 21.06445,-18.48242 2.15886,3.19023 4.61615,6.57776 7.38086,10.17188 6.52901,8.23224 10.92826,14.90402 13.19922,20.01367 2.27096,4.8258 3.40625,9.65076 3.40625,14.47656 0,9.93545 -3.12204,18.59397 -9.36719,25.97461 -5.96127,7.09674 -13.3426,12.6313 -22.14258,16.60547 -4.25805,1.9871 -9.08303,3.54812 -14.47656,4.68359 -5.10966,0.85163 -10.22042,1.27735 -15.33008,1.27735 -13.62577,0 -23.70145,-2.98014 -30.23047,-8.94141 -6.52901,-6.24514 -9.79492,-13.34069 -9.79492,-21.28906 0,-2.55484 0.42574,-5.11118 1.27735,-7.66602 0,-1.41934 -0.42574,-2.1289 -1.27735,-2.1289 -0.85161,0 -1.27734,0.28382 -1.27734,0.85156 -1.13548,3.97417 -2.55459,9.08494 -4.25781,15.33008 -1.41936,5.96127 -2.69655,11.35388 -3.83204,16.17968 0.28387,0.85161 0.99343,1.70306 2.12891,2.55469 1.13548,0.56774 2.41268,1.2773 3.83203,2.12891 5.39353,2.55483 11.21384,4.40164 17.45899,5.53711 6.52901,1.13549 13.05692,1.70312 19.58593,1.70312 15.61286,0 29.80593,-2.84017 42.58008,-8.51758 5.10967,-2.27096 10.22042,-5.2511 15.33008,-8.9414 5.39353,-3.9742 10.21851,-8.37344 14.47656,-13.19922 4.54193,-4.8258 8.09165,-10.07846 10.64649,-15.75586 2.8387,-5.6774 4.25781,-11.49576 4.25781,-17.45703 0,-3.40644 -0.28382,-6.24466 -0.85156,-8.51563 -0.56774,-2.55483 -1.56112,-5.11118 -2.98047,-7.66601 -1.41935,-2.83868 -3.40806,-5.81881 -5.96289,-8.94141 -2.27096,-3.40644 -5.2511,-7.52188 -8.94141,-12.34765 -1.10872,-1.43483 -2.19209,-2.90369 -3.25586,-4.39844 3.92328,-0.93996 8.01463,-1.67305 12.28125,-2.19336 11.92255,-1.41937 25.54797,-2.13086 40.87695,-2.13086 h 14.05274 c 2.8387,0 3.54826,1.27915 2.12891,3.83398 -5.96128,11.35481 -12.49114,23.2773 -19.58789,35.76758 -7.09676,12.20641 -14.47614,24.83845 -22.14063,37.89649 -7.38062,12.77414 -15.04578,25.69 -22.99414,38.74804 -7.6645,13.05802 -15.32965,25.83196 -22.99414,38.32227 -1.98709,3.12257 -3.54811,6.1027 -4.68359,8.9414 -1.13548,2.83871 -1.70313,5.39313 -1.70313,7.66407 0,3.69033 0.85147,6.5305 2.55469,8.51758 1.98709,1.98709 4.39958,3.4062 7.23828,4.25781 3.12257,1.13549 6.53039,1.70312 10.2207,1.70312 3.97419,0.28387 8.08961,0.42578 12.34766,0.42578 5.10966,0 10.64419,-0.14191 16.60547,-0.42578 5.96127,0 11.35585,-0.2838 16.18164,-0.85156 1.70322,-1.13547 2.12895,-2.27078 1.27734,-3.40625 -1.41935,0.28387 -3.12228,0.42578 -5.10937,0.42578 h -5.10938 c -6.24514,0 -11.3559,-0.42571 -15.33008,-1.27734 -3.69031,-1.13547 -6.52853,-2.41269 -8.51562,-3.83203 -1.98709,-1.70323 -3.26429,-3.55001 -3.83203,-5.53711 -0.56774,-2.27094 -0.85157,-4.54154 -0.85157,-6.8125 0.28387,-3.40644 1.13534,-7.09612 2.55469,-11.07031 1.70322,-4.25805 3.83189,-8.7992 6.38672,-13.625 11.07094,-20.15479 23.27724,-41.72917 36.61914,-64.72266 13.62577,-22.99349 28.38647,-46.55464 44.2832,-70.6836 1.98709,-2.8387 4.96918,-4.25976 8.94336,-4.25976 4.25805,-0.28387 9.08303,-0.28387 14.47657,0 5.39353,0 10.50428,-0.14191 15.33007,-0.42578 13.62578,-0.56774 25.12253,-2.5545 34.49024,-5.96094 9.65158,-3.40644 16.88904,-9.08288 21.71484,-17.03125 1.13547,-2.27097 1.70313,-4.25773 1.70313,-5.96094 0,-2.27096 -0.42574,-3.97583 -1.27735,-5.11133 -1.70323,-3.6903 -4.25762,-7.38 -7.66406,-11.07031 -0.56773,-0.56773 -0.99347,-0.85156 -1.27734,-0.85156 -0.85161,0 -1.27735,0.56765 -1.27735,1.70313 0,0.56773 0.14192,0.99347 0.42578,1.27734 0.28387,0.56776 0.42579,1.56113 0.42579,2.98047 0,5.39353 -2.12866,10.36239 -6.38672,14.90429 -4.25804,4.54194 -8.51733,7.94779 -12.77539,10.21875 -13.62575,7.38062 -31.79234,11.21223 -54.50196,11.4961 H 330.8418 306.14648 c -8.23223,-0.28387 -16.46503,-0.42578 -24.69726,-0.42578 h -26.40039 c -5.81537,-0.18759 -11.25071,0.006 -16.32227,0.5625 -1.60073,-2.59482 -3.14274,-5.26872 -4.625,-8.02149 -3.97418,-7.38063 -5.96094,-15.32962 -5.96094,-23.8457 10e-6,-11.07094 3.54778,-19.86943 10.64454,-26.39844 7.09675,-6.8129 16.32292,-10.2207 27.67773,-10.2207 10.78707,0 18.59218,2.27252 23.41797,6.81445 5.10966,4.54191 7.66602,9.3669 7.66602,14.47656 0,2.55484 -0.42574,4.68352 -1.27735,6.38672 0.85161,1.41937 1.84499,1.84508 2.98047,1.27735 0.85161,-3.12257 1.9869,-6.95416 3.40625,-11.4961 1.70322,-4.54191 3.12233,-8.23161 4.25781,-11.07031 0,-1.9871 -0.70956,-3.97579 -2.1289,-5.96289 -3.40645,-3.69031 -7.24,-6.10281 -11.49805,-7.23828 -4.25805,-1.41937 -8.6573,-2.12891 -13.19922,-2.12891 z"
         style="font-style:normal;font-variant:normal;font-weight:normal;font-stretch:normal;font-size:45.06438828px;line-height:1.25;font-family:Zapfino;-inkscape-font-specification:Zapfino;font-variant-ligatures:normal;font-variant-caps:normal;font-variant-numeric:normal;font-feature-settings:normal;text-align:start;letter-spacing:0px;word-spacing:0px;writing-mode:lr-tb;text-anchor:start;fill:#dd3734;fill-opacity:1;stroke:none;stroke-width:4.25805235"
         inkscape:connector-curvature="0" />
    </g>
  </g>
</svg>
