<svg xmlns="http://www.w3.org/2000/svg" xmlns:xlink="http://www.w3.org/1999/xlink" width="16" height="16" viewBox="0 0 16 16"><defs><linearGradient id="f" gradientUnits="userSpaceOnUse" x1="120.5" y1="518.4" x2="488.68" y2="518.4"><stop offset="0" stop-color="#317ac6"/><stop offset="100" stop-color="#fff"/></linearGradient><linearGradient id="j" gradientUnits="userSpaceOnUse" x1="120.5" y1="518.4" x2="488.68" y2="518.4"><stop offset="-99" stop-color="#fff"/><stop offset="1" stop-color="#317ac6"/></linearGradient><linearGradient id="g"><stop offset="0" stop-color="#007acc"/><stop offset="1" stop-opacity="0"/></linearGradient><linearGradient id="b" gradientUnits="userSpaceOnUse" x1="120.5" y1="518.4" x2="488.68" y2="518.4"><stop offset="0" stop-color="#317ac6"/><stop offset="100" stop-color="#fff"/></linearGradient><linearGradient id="d" gradientUnits="userSpaceOnUse" x1="120.5" y1="518.4" x2="488.68" y2="518.4"><stop offset="0" stop-color="#317ac6"/><stop offset="100" stop-color="#fff"/></linearGradient><linearGradient id="c" gradientUnits="userSpaceOnUse" x1="120.5" y1="518.4" x2="488.68" y2="518.4"><stop offset="0" stop-color="#317ac6"/><stop offset="100" stop-color="#fff"/></linearGradient><linearGradient id="e" gradientUnits="userSpaceOnUse" x1="120.5" y1="518.4" x2="488.68" y2="518.4"><stop offset="0" stop-color="#317ac6"/><stop offset="100" stop-color="#fff"/></linearGradient><linearGradient id="a" gradientUnits="userSpaceOnUse" x1="120.5" y1="518.4" x2="488.68" y2="518.4"><stop offset="0%" stop-color="#317ac6"/><stop offset="100%" stop-color="#fff"/></linearGradient><linearGradient id="h" gradientUnits="userSpaceOnUse" x1="120.5" y1="518.4" x2="488.68" y2="518.4"><stop offset="-99" stop-color="#fff"/><stop offset="1" stop-color="#317ac6"/></linearGradient><linearGradient id="i"><stop offset="0" stop-color="#007acc"/><stop offset="1" stop-opacity="0"/></linearGradient><linearGradient xlink:href="#a" id="x" gradientUnits="userSpaceOnUse" x1="1573.989" y1="5756.372" x2="5354.367" y2="5756.372"/><linearGradient xlink:href="#b" id="y" gradientUnits="userSpaceOnUse" x1="1023.322" y1="5794.454" x2="5354.367" y2="5756.372"/><linearGradient xlink:href="#a" id="w" gradientUnits="userSpaceOnUse" x1="1573.989" y1="5756.372" x2="5354.367" y2="5756.372"/><linearGradient xlink:href="#c" id="u" gradientUnits="userSpaceOnUse" x1="3064.342" y1="3753.434" x2="5354.367" y2="3746.497"/><linearGradient xlink:href="#d" id="v" gradientUnits="userSpaceOnUse" x1="1023.322" y1="3753.434" x2="5354.367" y2="3746.497"/><linearGradient xlink:href="#c" id="t" gradientUnits="userSpaceOnUse" x1="3064.342" y1="3753.434" x2="5354.367" y2="3746.497"/><linearGradient xlink:href="#a" id="r" gradientUnits="userSpaceOnUse" x1="1573.989" y1="1736.341" x2="5354.367" y2="1736.341"/><linearGradient xlink:href="#e" id="s" gradientUnits="userSpaceOnUse" x1="1023.322" y1="1712.414" x2="5354.367" y2="1736.341"/><linearGradient xlink:href="#f" id="q" gradientUnits="userSpaceOnUse" x1="1573.989" y1="1736.341" x2="5354.367" y2="1736.341"/><linearGradient xlink:href="#g" id="o" gradientUnits="userSpaceOnUse" x1="1573.989" y1="4745.939" x2="5354.367" y2="4745.939"/><linearGradient xlink:href="#h" id="p" gradientUnits="userSpaceOnUse" x1="1573.989" y1="4745.939" x2="5354.367" y2="4745.939"/><linearGradient xlink:href="#g" id="n" gradientUnits="userSpaceOnUse" x1="1573.989" y1="4745.939" x2="5354.367" y2="4745.939"/><linearGradient xlink:href="#i" id="l" gradientUnits="userSpaceOnUse" x1="1573.989" y1="2735.783" x2="5354.367" y2="2735.783"/><linearGradient xlink:href="#j" id="m" gradientUnits="userSpaceOnUse" x1="1573.989" y1="2735.783" x2="5354.367" y2="2735.783" spreadMethod="pad"/><linearGradient xlink:href="#i" id="k" gradientUnits="userSpaceOnUse" x1="1573.989" y1="2735.783" x2="5354.367" y2="2735.783"/></defs><path d="M0 16V0h16v16z" fill="none"/><text x="4499.382" y="5904.821" font-size="1020.12" font-family="'Source Sans Pro'" font-weight="700" letter-spacing="0" alignment-baseline="before-edge" style="line-height:100%" dominant-baseline="text-before-edge" fill="#fff" stroke-width="10.201" transform="translate(-51.147 -43.478) scale(.17104)"><tspan x="4499.382" dy="0" alignment-baseline="before-edge" stroke-width="104.065">ST</tspan></text><g transform="translate(-.505 -1.186) scale(.00245)" fill="url(#k)"><path d="M1579.09 1482.419v1507.847c754.382 201.066 3770.177 376.732 3770.177 1004.516V2486.936c-754.076-200.863 0-627.887-3770.178-1004.517z" fill="url(#l)"/><path d="M1579.09 1482.419v1507.847c754.382 201.066 3770.177 376.732 3770.177 1004.516V2486.936c-754.076-200.863 0-627.887-3770.178-1004.517z" fill="url(#m)"/></g><path d="M3.363 2.446v3.693c1.849.493 9.237.923 9.237 2.461V4.906c-1.848-.492 0-1.538-9.237-2.46z" fill="none"/><path d="M3.363 2.446v3.693c1.849.493 9.237.923 9.237 2.461V4.906c-1.848-.492 0-1.538-9.237-2.46z" fill="none"/><path d="M3.363 2.446v3.693c1.849.493 9.237.923 9.237 2.461V4.906c-1.848-.492 0-1.538-9.237-2.46z" fill="none"/><path d="M3.363 2.446v3.693c1.849.493 9.237.923 9.237 2.461V4.906c-1.848-.492 0-1.538-9.237-2.46z" fill="none"/><path d="M3.363 2.446v3.693c1.849.493 9.237.923 9.237 2.461V4.906c-1.848-.492 0-1.538-9.237-2.46z" fill="none"/><path d="M3.363 2.446v3.693c1.849.493 9.237.923 9.237 2.461V4.906c-1.848-.492 0-1.538-9.237-2.46z" fill="none"/><path d="M3.363 2.446v3.693c1.849.493 9.237.923 9.237 2.461V4.906c-1.848-.492 0-1.538-9.237-2.46z" fill="none"/><path d="M3.363 2.446v3.693c1.849.493 9.237.923 9.237 2.461V4.906c-1.848-.492 0-1.538-9.237-2.46z" fill="none"/><path d="M3.363 2.446v3.693c1.849.493 9.237.923 9.237 2.461V4.906c-1.848-.492 0-1.538-9.237-2.46z" fill="none"/><path d="M3.363 2.446v3.693c1.849.493 9.237.923 9.237 2.461V4.906c-1.848-.492 0-1.538-9.237-2.46z" fill="none"/><path d="M3.363 2.446v3.693c1.849.493 9.237.923 9.237 2.461V4.906c-1.848-.492 0-1.538-9.237-2.46z" fill="none"/><path d="M3.363 2.446v3.693c1.849.493 9.237.923 9.237 2.461V4.906c-1.848-.492 0-1.538-9.237-2.46z" fill="none"/><path d="M3.363 2.446v3.693c1.849.493 9.237.923 9.237 2.461V4.906c-1.848-.492 0-1.538-9.237-2.46z" fill="none"/><path d="M3.363 2.446v3.693c1.849.493 9.237.923 9.237 2.461V4.906c-1.848-.492 0-1.538-9.237-2.46z" fill="none"/><g transform="translate(-.505 -1.186) scale(.00245)" fill="url(#n)"><path d="M1579.09 3492.575v1507.847c754.382 201.066 3770.177 376.732 3770.177 1004.516V4497.092c-754.076-200.863 0-627.887-3770.178-1004.517z" fill="url(#o)"/><path d="M1579.09 3492.575v1507.847c754.382 201.066 3770.177 376.732 3770.177 1004.516V4497.092c-754.076-200.863 0-627.887-3770.178-1004.517z" fill="url(#p)"/></g><path d="M3.363 7.37v3.694c1.849.492 9.237.923 9.237 2.46V9.832c-1.848-.492 0-1.538-9.237-2.461z" fill="none"/><path d="M3.363 7.37v3.694c1.849.492 9.237.923 9.237 2.46V9.832c-1.848-.492 0-1.538-9.237-2.461z" fill="none"/><path d="M3.363 7.37v3.694c1.849.492 9.237.923 9.237 2.46V9.832c-1.848-.492 0-1.538-9.237-2.461z" fill="none"/><path d="M3.363 7.37v3.694c1.849.492 9.237.923 9.237 2.46V9.832c-1.848-.492 0-1.538-9.237-2.461z" fill="none"/><path d="M3.363 7.37v3.694c1.849.492 9.237.923 9.237 2.46V9.832c-1.848-.492 0-1.538-9.237-2.461z" fill="none"/><path d="M3.363 7.37v3.694c1.849.492 9.237.923 9.237 2.46V9.832c-1.848-.492 0-1.538-9.237-2.461z" fill="none"/><path d="M3.363 7.37v3.694c1.849.492 9.237.923 9.237 2.46V9.832c-1.848-.492 0-1.538-9.237-2.461z" fill="none"/><path d="M3.363 7.37v3.694c1.849.492 9.237.923 9.237 2.46V9.832c-1.848-.492 0-1.538-9.237-2.461z" fill="none"/><path d="M3.363 7.37v3.694c1.849.492 9.237.923 9.237 2.46V9.832c-1.848-.492 0-1.538-9.237-2.461z" fill="none"/><path d="M3.363 7.37v3.694c1.849.492 9.237.923 9.237 2.46V9.832c-1.848-.492 0-1.538-9.237-2.461z" fill="none"/><path d="M3.363 7.37v3.694c1.849.492 9.237.923 9.237 2.46V9.832c-1.848-.492 0-1.538-9.237-2.461z" fill="none"/><path d="M3.363 7.37v3.694c1.849.492 9.237.923 9.237 2.46V9.832c-1.848-.492 0-1.538-9.237-2.461z" fill="none"/><path d="M3.363 7.37v3.694c1.849.492 9.237.923 9.237 2.46V9.832c-1.848-.492 0-1.538-9.237-2.461z" fill="none"/><path d="M3.363 7.37v3.694c1.849.492 9.237.923 9.237 2.46V9.832c-1.848-.492 0-1.538-9.237-2.461z" fill="none"/><g transform="translate(-.505 -1.186) scale(.00245)" fill="url(#q)"><path d="M5349.267 476.78v1507.847s0 627.886-3770.177 1005.639V1482.418S5349.267 1104.667 5349.267 476.78" fill="url(#r)"/><path d="M5349.267 476.78v1507.847s0 627.886-3770.177 1005.639V1482.418S5349.267 1104.667 5349.267 476.78" fill="url(#s)"/></g><path d="M12.6-.018v3.694s0 1.538-9.237 2.463V2.446S12.6 1.52 12.6-.018" fill="none"/><path d="M12.6-.018v3.694s0 1.538-9.237 2.463V2.446S12.6 1.52 12.6-.018" fill="none"/><path d="M12.6-.018v3.694s0 1.538-9.237 2.463V2.446S12.6 1.52 12.6-.018" fill="none"/><path d="M12.6-.018v3.694s0 1.538-9.237 2.463V2.446S12.6 1.52 12.6-.018" fill="none"/><path d="M12.6-.018v3.694s0 1.538-9.237 2.463V2.446S12.6 1.52 12.6-.018" fill="none"/><path d="M12.6-.018v3.694s0 1.538-9.237 2.463V2.446S12.6 1.52 12.6-.018" fill="none"/><path d="M12.6-.018v3.694s0 1.538-9.237 2.463V2.446S12.6 1.52 12.6-.018" fill="none"/><path d="M12.6-.018v3.694s0 1.538-9.237 2.463V2.446S12.6 1.52 12.6-.018" fill="none"/><path d="M12.6-.018v3.694s0 1.538-9.237 2.463V2.446S12.6 1.52 12.6-.018" fill="none"/><path d="M12.6-.018v3.694s0 1.538-9.237 2.463V2.446S12.6 1.52 12.6-.018" fill="none"/><path d="M12.6-.018v3.694s0 1.538-9.237 2.463V2.446S12.6 1.52 12.6-.018" fill="none"/><path d="M12.6-.018v3.694s0 1.538-9.237 2.463V2.446S12.6 1.52 12.6-.018" fill="none"/><g fill="none"><path d="M12.6-.018v3.694s0 1.538-9.237 2.463V2.446S12.6 1.52 12.6-.018"/><path d="M12.6-.018v3.694s0 1.538-9.237 2.463V2.446S12.6 1.52 12.6-.018"/></g><g transform="translate(-.505 -1.186) scale(.00245)" fill="url(#t)"><path d="M1579.09 5000.422V3492.575c754.382-201.169 3770.177-376.732 3770.177-1005.64v1507.847c-754.076 201.17 0 628.907-3770.178 1005.64z" fill="url(#u)"/><path d="M1579.09 5000.422V3492.575c754.382-201.169 3770.177-376.732 3770.177-1005.64v1507.847c-754.076 201.17 0 628.907-3770.178 1005.64z" fill="url(#v)"/></g><g fill="none"><path d="M3.363 11.064V7.37c1.849-.493 9.237-.923 9.237-2.464V8.6c-1.848.493 0 1.54-9.237 2.464z"/><path d="M3.363 11.064V7.37c1.849-.493 9.237-.923 9.237-2.464V8.6c-1.848.493 0 1.54-9.237 2.464z"/></g><g fill="none"><path d="M3.363 11.064V7.37c1.849-.493 9.237-.923 9.237-2.464V8.6c-1.848.493 0 1.54-9.237 2.464z"/><path d="M3.363 11.064V7.37c1.849-.493 9.237-.923 9.237-2.464V8.6c-1.848.493 0 1.54-9.237 2.464z"/></g><g fill="none"><path d="M3.363 11.064V7.37c1.849-.493 9.237-.923 9.237-2.464V8.6c-1.848.493 0 1.54-9.237 2.464z"/><path d="M3.363 11.064V7.37c1.849-.493 9.237-.923 9.237-2.464V8.6c-1.848.493 0 1.54-9.237 2.464z"/></g><g fill="none"><path d="M3.363 11.064V7.37c1.849-.493 9.237-.923 9.237-2.464V8.6c-1.848.493 0 1.54-9.237 2.464z"/><path d="M3.363 11.064V7.37c1.849-.493 9.237-.923 9.237-2.464V8.6c-1.848.493 0 1.54-9.237 2.464z"/></g><g fill="none"><path d="M3.363 11.064V7.37c1.849-.493 9.237-.923 9.237-2.464V8.6c-1.848.493 0 1.54-9.237 2.464z"/><path d="M3.363 11.064V7.37c1.849-.493 9.237-.923 9.237-2.464V8.6c-1.848.493 0 1.54-9.237 2.464z"/></g><g fill="none"><path d="M3.363 11.064V7.37c1.849-.493 9.237-.923 9.237-2.464V8.6c-1.848.493 0 1.54-9.237 2.464z"/><path d="M3.363 11.064V7.37c1.849-.493 9.237-.923 9.237-2.464V8.6c-1.848.493 0 1.54-9.237 2.464z"/></g><g fill="none"><path d="M3.363 11.064V7.37c1.849-.493 9.237-.923 9.237-2.464V8.6c-1.848.493 0 1.54-9.237 2.464z"/><path d="M3.363 11.064V7.37c1.849-.493 9.237-.923 9.237-2.464V8.6c-1.848.493 0 1.54-9.237 2.464z"/></g><g transform="translate(-.505 -1.186) scale(.00245)" fill="url(#w)"><path d="M1579.09 7010.577V5502.731s3770.177-376.732 3770.177-1005.64v1507.847s0 628.907-3770.178 1005.64" fill="url(#x)"/><path d="M1579.09 7010.577V5502.731s3770.177-376.732 3770.177-1005.64v1507.847s0 628.907-3770.178 1005.64" fill="url(#y)"/></g><g fill="none"><path d="M3.363 15.988v-3.694s9.237-.923 9.237-2.463v3.694s0 1.54-9.237 2.463"/><path d="M3.363 15.988v-3.694s9.237-.923 9.237-2.463v3.694s0 1.54-9.237 2.463"/></g><g fill="none"><path d="M3.363 15.988v-3.694s9.237-.923 9.237-2.463v3.694s0 1.54-9.237 2.463"/><path d="M3.363 15.988v-3.694s9.237-.923 9.237-2.463v3.694s0 1.54-9.237 2.463"/></g><g fill="none"><path d="M3.363 15.988v-3.694s9.237-.923 9.237-2.463v3.694s0 1.54-9.237 2.463"/><path d="M3.363 15.988v-3.694s9.237-.923 9.237-2.463v3.694s0 1.54-9.237 2.463"/></g><g fill="none"><path d="M3.363 15.988v-3.694s9.237-.923 9.237-2.463v3.694s0 1.54-9.237 2.463"/><path d="M3.363 15.988v-3.694s9.237-.923 9.237-2.463v3.694s0 1.54-9.237 2.463"/></g><g fill="none"><path d="M3.363 15.988v-3.694s9.237-.923 9.237-2.463v3.694s0 1.54-9.237 2.463"/><path d="M3.363 15.988v-3.694s9.237-.923 9.237-2.463v3.694s0 1.54-9.237 2.463"/></g><g fill="none"><path d="M3.363 15.988v-3.694s9.237-.923 9.237-2.463v3.694s0 1.54-9.237 2.463"/><path d="M3.363 15.988v-3.694s9.237-.923 9.237-2.463v3.694s0 1.54-9.237 2.463"/></g><g fill="none"><path d="M3.363 15.988v-3.694s9.237-.923 9.237-2.463v3.694s0 1.54-9.237 2.463"/><path d="M3.363 15.988v-3.694s9.237-.923 9.237-2.463v3.694s0 1.54-9.237 2.463"/></g><path d="M7.002 16.009v-7h7v7z" fill="#fff"/><text style="line-height:1.25;-inkscape-font-specification:sans-serif" x="445.946" y="634.562" font-weight="400" font-size="35.704" font-family="sans-serif" letter-spacing="0" word-spacing="0" fill="#317ac6" stroke-width="4.463" transform="translate(-34.994 -46.737) scale(.09803)"><tspan x="445.946" y="634.562" style="-inkscape-font-specification:'sans-serif Bold'" font-weight="700">ST</tspan></text></svg>