<svg xmlns="http://www.w3.org/2000/svg" width="16" height="16" viewBox="0 0 16 16"><path d="M0 16V0h16v16z" fill="none"/><text x="4499.382" y="5904.821" font-size="1020.12" font-family="'Source Sans Pro'" font-weight="700" letter-spacing="0" alignment-baseline="before-edge" style="line-height:100%" dominant-baseline="text-before-edge" fill="#fff" stroke-width="10.201" transform="translate(-51.147 -43.478) scale(.17104)"><tspan x="4499.382" dy="0" alignment-baseline="before-edge" stroke-width="104.065">ST</tspan></text><path d="M3.363 2.446v3.693c1.849.493 9.237.923 9.237 2.461V4.906c-1.848-.492 0-1.538-9.237-2.46z" fill="none"/><path d="M3.363 2.446v3.693c1.849.493 9.237.923 9.237 2.461V4.906c-1.848-.492 0-1.538-9.237-2.46z" fill="none"/><path d="M3.363 2.446v3.693c1.849.493 9.237.923 9.237 2.461V4.906c-1.848-.492 0-1.538-9.237-2.46z" fill="none"/><path d="M3.363 2.446v3.693c1.849.493 9.237.923 9.237 2.461V4.906c-1.848-.492 0-1.538-9.237-2.46z" fill="none"/><path d="M3.363 2.446v3.693c1.849.493 9.237.923 9.237 2.461V4.906c-1.848-.492 0-1.538-9.237-2.46z" fill="none"/><path d="M3.363 2.446v3.693c1.849.493 9.237.923 9.237 2.461V4.906c-1.848-.492 0-1.538-9.237-2.46z" fill="none"/><path d="M3.363 2.446v3.693c1.849.493 9.237.923 9.237 2.461V4.906c-1.848-.492 0-1.538-9.237-2.46z" fill="none"/><path d="M3.363 2.446v3.693c1.849.493 9.237.923 9.237 2.461V4.906c-1.848-.492 0-1.538-9.237-2.46z" fill="none"/><path d="M3.363 2.446v3.693c1.849.493 9.237.923 9.237 2.461V4.906c-1.848-.492 0-1.538-9.237-2.46z" fill="none"/><path d="M3.363 2.446v3.693c1.849.493 9.237.923 9.237 2.461V4.906c-1.848-.492 0-1.538-9.237-2.46z" fill="none"/><path d="M3.363 2.446v3.693c1.849.493 9.237.923 9.237 2.461V4.906c-1.848-.492 0-1.538-9.237-2.46z" fill="none"/><path d="M3.363 2.446v3.693c1.849.493 9.237.923 9.237 2.461V4.906c-1.848-.492 0-1.538-9.237-2.46z" fill="none"/><path d="M3.363 2.446v3.693c1.849.493 9.237.923 9.237 2.461V4.906c-1.848-.492 0-1.538-9.237-2.46z" fill="none"/><path d="M3.363 2.446v3.693c1.849.493 9.237.923 9.237 2.461V4.906c-1.848-.492 0-1.538-9.237-2.46zm0 4.924v3.694c1.849.492 9.237.923 9.237 2.46V9.832c-1.848-.492 0-1.538-9.237-2.461z" fill="none"/><path d="M3.363 7.37v3.694c1.849.492 9.237.923 9.237 2.46V9.832c-1.848-.492 0-1.538-9.237-2.461z" fill="none"/><path d="M3.363 7.37v3.694c1.849.492 9.237.923 9.237 2.46V9.832c-1.848-.492 0-1.538-9.237-2.461z" fill="none"/><path d="M3.363 7.37v3.694c1.849.492 9.237.923 9.237 2.46V9.832c-1.848-.492 0-1.538-9.237-2.461z" fill="none"/><path d="M3.363 7.37v3.694c1.849.492 9.237.923 9.237 2.46V9.832c-1.848-.492 0-1.538-9.237-2.461z" fill="none"/><path d="M3.363 7.37v3.694c1.849.492 9.237.923 9.237 2.46V9.832c-1.848-.492 0-1.538-9.237-2.461z" fill="none"/><path d="M3.363 7.37v3.694c1.849.492 9.237.923 9.237 2.46V9.832c-1.848-.492 0-1.538-9.237-2.461z" fill="none"/><path d="M3.363 7.37v3.694c1.849.492 9.237.923 9.237 2.46V9.832c-1.848-.492 0-1.538-9.237-2.461z" fill="none"/><path d="M3.363 7.37v3.694c1.849.492 9.237.923 9.237 2.46V9.832c-1.848-.492 0-1.538-9.237-2.461z" fill="none"/><path d="M3.363 7.37v3.694c1.849.492 9.237.923 9.237 2.46V9.832c-1.848-.492 0-1.538-9.237-2.461z" fill="none"/><path d="M3.363 7.37v3.694c1.849.492 9.237.923 9.237 2.46V9.832c-1.848-.492 0-1.538-9.237-2.461z" fill="none"/><path d="M3.363 7.37v3.694c1.849.492 9.237.923 9.237 2.46V9.832c-1.848-.492 0-1.538-9.237-2.461z" fill="none"/><path d="M3.363 7.37v3.694c1.849.492 9.237.923 9.237 2.46V9.832c-1.848-.492 0-1.538-9.237-2.461z" fill="none"/><path d="M3.363 7.37v3.694c1.849.492 9.237.923 9.237 2.46V9.832c-1.848-.492 0-1.538-9.237-2.461zM12.6-.018v3.694s0 1.538-9.237 2.463V2.446S12.6 1.52 12.6-.018" fill="none"/><path d="M12.6-.018v3.694s0 1.538-9.237 2.463V2.446S12.6 1.52 12.6-.018" fill="none"/><path d="M12.6-.018v3.694s0 1.538-9.237 2.463V2.446S12.6 1.52 12.6-.018" fill="none"/><path d="M12.6-.018v3.694s0 1.538-9.237 2.463V2.446S12.6 1.52 12.6-.018" fill="none"/><path d="M12.6-.018v3.694s0 1.538-9.237 2.463V2.446S12.6 1.52 12.6-.018" fill="none"/><path d="M12.6-.018v3.694s0 1.538-9.237 2.463V2.446S12.6 1.52 12.6-.018" fill="none"/><path d="M12.6-.018v3.694s0 1.538-9.237 2.463V2.446S12.6 1.52 12.6-.018" fill="none"/><path d="M12.6-.018v3.694s0 1.538-9.237 2.463V2.446S12.6 1.52 12.6-.018" fill="none"/><path d="M12.6-.018v3.694s0 1.538-9.237 2.463V2.446S12.6 1.52 12.6-.018" fill="none"/><path d="M12.6-.018v3.694s0 1.538-9.237 2.463V2.446S12.6 1.52 12.6-.018" fill="none"/><g fill="none"><path d="M12.6-.018v3.694s0 1.538-9.237 2.463V2.446S12.6 1.52 12.6-.018"/><path d="M12.6-.018v3.694s0 1.538-9.237 2.463V2.446S12.6 1.52 12.6-.018"/></g><g fill="none"><path d="M12.6-.018v3.694s0 1.538-9.237 2.463V2.446S12.6 1.52 12.6-.018"/><path d="M12.6-.018v3.694s0 1.538-9.237 2.463V2.446S12.6 1.52 12.6-.018"/></g><g fill="none"><path d="M3.363 11.064V7.37c1.849-.493 9.237-.923 9.237-2.464V8.6c-1.848.493 0 1.54-9.237 2.464z"/><path d="M3.363 11.064V7.37c1.849-.493 9.237-.923 9.237-2.464V8.6c-1.848.493 0 1.54-9.237 2.464z"/></g><g fill="none"><path d="M3.363 11.064V7.37c1.849-.493 9.237-.923 9.237-2.464V8.6c-1.848.493 0 1.54-9.237 2.464z"/><path d="M3.363 11.064V7.37c1.849-.493 9.237-.923 9.237-2.464V8.6c-1.848.493 0 1.54-9.237 2.464z"/></g><g fill="none"><path d="M3.363 11.064V7.37c1.849-.493 9.237-.923 9.237-2.464V8.6c-1.848.493 0 1.54-9.237 2.464z"/><path d="M3.363 11.064V7.37c1.849-.493 9.237-.923 9.237-2.464V8.6c-1.848.493 0 1.54-9.237 2.464z"/></g><g fill="none"><path d="M3.363 11.064V7.37c1.849-.493 9.237-.923 9.237-2.464V8.6c-1.848.493 0 1.54-9.237 2.464z"/><path d="M3.363 11.064V7.37c1.849-.493 9.237-.923 9.237-2.464V8.6c-1.848.493 0 1.54-9.237 2.464z"/></g><g fill="none"><path d="M3.363 11.064V7.37c1.849-.493 9.237-.923 9.237-2.464V8.6c-1.848.493 0 1.54-9.237 2.464z"/><path d="M3.363 11.064V7.37c1.849-.493 9.237-.923 9.237-2.464V8.6c-1.848.493 0 1.54-9.237 2.464z"/></g><g fill="none"><path d="M3.363 11.064V7.37c1.849-.493 9.237-.923 9.237-2.464V8.6c-1.848.493 0 1.54-9.237 2.464z"/><path d="M3.363 11.064V7.37c1.849-.493 9.237-.923 9.237-2.464V8.6c-1.848.493 0 1.54-9.237 2.464z"/></g><g fill="none"><path d="M3.363 11.064V7.37c1.849-.493 9.237-.923 9.237-2.464V8.6c-1.848.493 0 1.54-9.237 2.464z"/><path d="M3.363 11.064V7.37c1.849-.493 9.237-.923 9.237-2.464V8.6c-1.848.493 0 1.54-9.237 2.464z"/></g><g fill="none"><path d="M3.363 15.988v-3.694s9.237-.923 9.237-2.463v3.694s0 1.54-9.237 2.463"/><path d="M3.363 15.988v-3.694s9.237-.923 9.237-2.463v3.694s0 1.54-9.237 2.463"/></g><g fill="none"><path d="M3.363 15.988v-3.694s9.237-.923 9.237-2.463v3.694s0 1.54-9.237 2.463"/><path d="M3.363 15.988v-3.694s9.237-.923 9.237-2.463v3.694s0 1.54-9.237 2.463"/></g><g fill="none"><path d="M3.363 15.988v-3.694s9.237-.923 9.237-2.463v3.694s0 1.54-9.237 2.463"/><path d="M3.363 15.988v-3.694s9.237-.923 9.237-2.463v3.694s0 1.54-9.237 2.463"/></g><g fill="none"><path d="M3.363 15.988v-3.694s9.237-.923 9.237-2.463v3.694s0 1.54-9.237 2.463"/><path d="M3.363 15.988v-3.694s9.237-.923 9.237-2.463v3.694s0 1.54-9.237 2.463"/></g><g fill="none"><path d="M3.363 15.988v-3.694s9.237-.923 9.237-2.463v3.694s0 1.54-9.237 2.463"/><path d="M3.363 15.988v-3.694s9.237-.923 9.237-2.463v3.694s0 1.54-9.237 2.463"/></g><g fill="none"><path d="M3.363 15.988v-3.694s9.237-.923 9.237-2.463v3.694s0 1.54-9.237 2.463"/><path d="M3.363 15.988v-3.694s9.237-.923 9.237-2.463v3.694s0 1.54-9.237 2.463"/></g><g fill="none"><path d="M3.363 15.988v-3.694s9.237-.923 9.237-2.463v3.694s0 1.54-9.237 2.463"/><path d="M3.363 15.988v-3.694s9.237-.923 9.237-2.463v3.694s0 1.54-9.237 2.463"/></g><path d="M0 16.009v-16h16v16z" fill="#fff"/><text style="line-height:1.25;-inkscape-font-specification:sans-serif" x="397.064" y="627.452" font-weight="400" font-size="81.61" font-family="sans-serif" letter-spacing="0" word-spacing="0" fill="#317ac6" stroke-width="10.201" transform="translate(-34.994 -46.737) scale(.09803)"><tspan x="397.064" y="627.452" style="-inkscape-font-specification:'sans-serif Bold'" font-weight="700">ST</tspan></text></svg>