<svg xmlns="http://www.w3.org/2000/svg" xmlns:xlink="http://www.w3.org/1999/xlink" width="16" height="16" viewBox="0 0 16 16"><defs><linearGradient id="i" gradientUnits="userSpaceOnUse" x1="120.5" y1="518.4" x2="488.68" y2="518.4"><stop offset="0" stop-color="#317ac6"/><stop offset="100" stop-color="#fff"/></linearGradient><linearGradient id="b"><stop offset="0" stop-color="#007acc"/><stop offset="1" stop-opacity="0"/></linearGradient><linearGradient id="g" gradientUnits="userSpaceOnUse" x1="120.5" y1="518.4" x2="488.68" y2="518.4"><stop offset="-99" stop-color="#fff"/><stop offset="1" stop-color="#317ac6"/></linearGradient><linearGradient id="f" gradientUnits="userSpaceOnUse" x1="120.5" y1="518.4" x2="488.68" y2="518.4"><stop offset="-99" stop-color="#fff"/><stop offset="1" stop-color="#317ac6"/></linearGradient><linearGradient id="e" gradientUnits="userSpaceOnUse" x1="120.5" y1="518.4" x2="488.68" y2="518.4"><stop offset="0" stop-color="#317ac6"/><stop offset="100" stop-color="#fff"/></linearGradient><linearGradient id="d" gradientUnits="userSpaceOnUse" x1="120.5" y1="518.4" x2="488.68" y2="518.4"><stop offset="-99" stop-color="#fff"/><stop offset="1" stop-color="#317ac6"/></linearGradient><linearGradient id="c" gradientUnits="userSpaceOnUse" x1="120.5" y1="518.4" x2="488.68" y2="518.4"><stop offset="0%" stop-color="#317ac6"/><stop offset="100%" stop-color="#fff"/></linearGradient><linearGradient id="h" gradientUnits="userSpaceOnUse" x1="120.5" y1="518.4" x2="488.68" y2="518.4"><stop offset="0%" stop-color="#317ac6"/><stop offset="100%" stop-color="#fff"/></linearGradient><linearGradient xlink:href="#a" id="j" x1="1573.989" y1="2735.783" x2="5354.367" y2="2735.783" gradientUnits="userSpaceOnUse"/><linearGradient id="a"><stop offset="0" stop-color="#007acc"/><stop offset="1" stop-opacity="0"/></linearGradient><linearGradient xlink:href="#b" id="m" x1="1573.989" y1="4745.939" x2="5354.367" y2="4745.939" gradientUnits="userSpaceOnUse"/><linearGradient xlink:href="#c" id="p" x1="1573.989" y1="1736.341" x2="5354.367" y2="1736.341" gradientUnits="userSpaceOnUse"/><linearGradient xlink:href="#d" id="r" gradientUnits="userSpaceOnUse" x1="1023.322" y1="1712.414" x2="5354.367" y2="1736.341"/><linearGradient xlink:href="#e" id="s" x1="3064.342" y1="3753.434" x2="5354.367" y2="3746.497" gradientUnits="userSpaceOnUse"/><linearGradient xlink:href="#f" id="u" gradientUnits="userSpaceOnUse" x1="1023.322" y1="3753.434" x2="5354.367" y2="3746.497"/><linearGradient xlink:href="#c" id="v" x1="1573.989" y1="5756.372" x2="5354.367" y2="5756.372" gradientUnits="userSpaceOnUse"/><linearGradient xlink:href="#g" id="x" gradientUnits="userSpaceOnUse" x1="1023.322" y1="5794.454" x2="5354.367" y2="5756.372"/><linearGradient xlink:href="#c" id="w" gradientUnits="userSpaceOnUse" x1="1573.989" y1="5756.372" x2="5354.367" y2="5756.372"/><linearGradient xlink:href="#c" id="t" gradientUnits="userSpaceOnUse" x1="3064.342" y1="3753.434" x2="5354.367" y2="3746.497"/><linearGradient xlink:href="#c" id="q" gradientUnits="userSpaceOnUse" x1="1573.989" y1="1736.341" x2="5354.367" y2="1736.341"/><linearGradient xlink:href="#a" id="n" gradientUnits="userSpaceOnUse" x1="1573.989" y1="4745.939" x2="5354.367" y2="4745.939"/><linearGradient xlink:href="#h" id="o" gradientUnits="userSpaceOnUse" x1="1573.989" y1="4745.939" x2="5354.367" y2="4745.939"/><linearGradient xlink:href="#a" id="k" gradientUnits="userSpaceOnUse" x1="1573.989" y1="2735.783" x2="5354.367" y2="2735.783"/><linearGradient xlink:href="#i" id="l" gradientUnits="userSpaceOnUse" x1="1573.989" y1="2735.783" x2="5354.367" y2="2735.783" spreadMethod="pad"/></defs><path d="M0 16V0h16v16z" fill="none"/><text x="4499.382" y="5904.821" font-size="1020.12" font-family="'Source Sans Pro'" font-weight="700" letter-spacing="0" alignment-baseline="before-edge" style="line-height:100%" dominant-baseline="text-before-edge" fill="#fff" stroke-width="10.201" transform="translate(-51.147 -43.478) scale(.17104)"><tspan x="4499.382" dy="0" alignment-baseline="before-edge" stroke-width="104.065">ST</tspan></text><g transform="translate(-.507 -1.195) scale(.00245)" fill="url(#j)"><path d="M1579.09 1482.419v1507.847c754.382 201.066 3770.177 376.732 3770.177 1004.516V2486.936c-754.076-200.863 0-627.887-3770.178-1004.517z" fill="url(#k)"/><path d="M1579.09 1482.419v1507.847c754.382 201.066 3770.177 376.732 3770.177 1004.516V2486.936c-754.076-200.863 0-627.887-3770.178-1004.517z" fill="url(#l)"/></g><path d="M3.362 2.437V6.13c1.848.493 9.236.923 9.236 2.461V4.897c-1.848-.492 0-1.538-9.236-2.46z" fill="none"/><path d="M3.362 2.437V6.13c1.848.493 9.236.923 9.236 2.461V4.897c-1.848-.492 0-1.538-9.236-2.46z" fill="none"/><path d="M3.362 2.437V6.13c1.848.493 9.236.923 9.236 2.461V4.897c-1.848-.492 0-1.538-9.236-2.46z" fill="none"/><path d="M3.362 2.437V6.13c1.848.493 9.236.923 9.236 2.461V4.897c-1.848-.492 0-1.538-9.236-2.46z" fill="none"/><path d="M3.362 2.437V6.13c1.848.493 9.236.923 9.236 2.461V4.897c-1.848-.492 0-1.538-9.236-2.46z" fill="none"/><path d="M3.362 2.437V6.13c1.848.493 9.236.923 9.236 2.461V4.897c-1.848-.492 0-1.538-9.236-2.46z" fill="none"/><path d="M3.362 2.437V6.13c1.848.493 9.236.923 9.236 2.461V4.897c-1.848-.492 0-1.538-9.236-2.46z" fill="none"/><path d="M3.362 2.437V6.13c1.848.493 9.236.923 9.236 2.461V4.897c-1.848-.492 0-1.538-9.236-2.46z" fill="none"/><path d="M3.362 2.437V6.13c1.848.493 9.236.923 9.236 2.461V4.897c-1.848-.492 0-1.538-9.236-2.46z" fill="none"/><path d="M3.362 2.437V6.13c1.848.493 9.236.923 9.236 2.461V4.897c-1.848-.492 0-1.538-9.236-2.46z" fill="none"/><path d="M3.362 2.437V6.13c1.848.493 9.236.923 9.236 2.461V4.897c-1.848-.492 0-1.538-9.236-2.46z" fill="none"/><path d="M3.362 2.437V6.13c1.848.493 9.236.923 9.236 2.461V4.897c-1.848-.492 0-1.538-9.236-2.46z" fill="none"/><path d="M3.362 2.437V6.13c1.848.493 9.236.923 9.236 2.461V4.897c-1.848-.492 0-1.538-9.236-2.46z" fill="none"/><path d="M3.362 2.437V6.13c1.848.493 9.236.923 9.236 2.461V4.897c-1.848-.492 0-1.538-9.236-2.46z" fill="none"/><g transform="translate(-.507 -1.195) scale(.00245)" fill="url(#m)"><path d="M1579.09 3492.575v1507.847c754.382 201.066 3770.177 376.732 3770.177 1004.516V4497.092c-754.076-200.863 0-627.887-3770.178-1004.517z" fill="url(#n)"/><path d="M1579.09 3492.575v1507.847c754.382 201.066 3770.177 376.732 3770.177 1004.516V4497.092c-754.076-200.863 0-627.887-3770.178-1004.517z" fill="url(#o)"/></g><path d="M3.362 7.361v3.694c1.848.492 9.236.923 9.236 2.46V9.823c-1.848-.492 0-1.538-9.236-2.461z" fill="none"/><path d="M3.362 7.361v3.694c1.848.492 9.236.923 9.236 2.46V9.823c-1.848-.492 0-1.538-9.236-2.461z" fill="none"/><path d="M3.362 7.361v3.694c1.848.492 9.236.923 9.236 2.46V9.823c-1.848-.492 0-1.538-9.236-2.461z" fill="none"/><path d="M3.362 7.361v3.694c1.848.492 9.236.923 9.236 2.46V9.823c-1.848-.492 0-1.538-9.236-2.461z" fill="none"/><path d="M3.362 7.361v3.694c1.848.492 9.236.923 9.236 2.46V9.823c-1.848-.492 0-1.538-9.236-2.461z" fill="none"/><path d="M3.362 7.361v3.694c1.848.492 9.236.923 9.236 2.46V9.823c-1.848-.492 0-1.538-9.236-2.461z" fill="none"/><path d="M3.362 7.361v3.694c1.848.492 9.236.923 9.236 2.46V9.823c-1.848-.492 0-1.538-9.236-2.461z" fill="none"/><path d="M3.362 7.361v3.694c1.848.492 9.236.923 9.236 2.46V9.823c-1.848-.492 0-1.538-9.236-2.461z" fill="none"/><path d="M3.362 7.361v3.694c1.848.492 9.236.923 9.236 2.46V9.823c-1.848-.492 0-1.538-9.236-2.461z" fill="none"/><path d="M3.362 7.361v3.694c1.848.492 9.236.923 9.236 2.46V9.823c-1.848-.492 0-1.538-9.236-2.461z" fill="none"/><path d="M3.362 7.361v3.694c1.848.492 9.236.923 9.236 2.46V9.823c-1.848-.492 0-1.538-9.236-2.461z" fill="none"/><path d="M3.362 7.361v3.694c1.848.492 9.236.923 9.236 2.46V9.823c-1.848-.492 0-1.538-9.236-2.461z" fill="none"/><path d="M3.362 7.361v3.694c1.848.492 9.236.923 9.236 2.46V9.823c-1.848-.492 0-1.538-9.236-2.461z" fill="none"/><path d="M3.362 7.361v3.694c1.848.492 9.236.923 9.236 2.46V9.823c-1.848-.492 0-1.538-9.236-2.461z" fill="none"/><g transform="translate(-.507 -1.195) scale(.00245)" fill="url(#p)"><path d="M5349.267 476.78v1507.847s0 627.886-3770.177 1005.639V1482.418S5349.267 1104.667 5349.267 476.78" fill="url(#q)"/><path d="M5349.267 476.78v1507.847s0 627.886-3770.177 1005.639V1482.418S5349.267 1104.667 5349.267 476.78" fill="url(#r)"/></g><path d="M12.598-.027v3.694s0 1.538-9.236 2.463V2.437s9.236-.926 9.236-2.464" fill="none"/><path d="M12.598-.027v3.694s0 1.538-9.236 2.463V2.437s9.236-.926 9.236-2.464" fill="none"/><path d="M12.598-.027v3.694s0 1.538-9.236 2.463V2.437s9.236-.926 9.236-2.464" fill="none"/><path d="M12.598-.027v3.694s0 1.538-9.236 2.463V2.437s9.236-.926 9.236-2.464" fill="none"/><path d="M12.598-.027v3.694s0 1.538-9.236 2.463V2.437s9.236-.926 9.236-2.464" fill="none"/><path d="M12.598-.027v3.694s0 1.538-9.236 2.463V2.437s9.236-.926 9.236-2.464" fill="none"/><path d="M12.598-.027v3.694s0 1.538-9.236 2.463V2.437s9.236-.926 9.236-2.464" fill="none"/><path d="M12.598-.027v3.694s0 1.538-9.236 2.463V2.437s9.236-.926 9.236-2.464" fill="none"/><path d="M12.598-.027v3.694s0 1.538-9.236 2.463V2.437s9.236-.926 9.236-2.464" fill="none"/><path d="M12.598-.027v3.694s0 1.538-9.236 2.463V2.437s9.236-.926 9.236-2.464" fill="none"/><path d="M12.598-.027v3.694s0 1.538-9.236 2.463V2.437s9.236-.926 9.236-2.464" fill="none"/><path d="M12.598-.027v3.694s0 1.538-9.236 2.463V2.437s9.236-.926 9.236-2.464" fill="none"/><g fill="none"><path d="M12.598-.027v3.694s0 1.538-9.236 2.463V2.437s9.236-.926 9.236-2.464"/><path d="M12.598-.027v3.694s0 1.538-9.236 2.463V2.437s9.236-.926 9.236-2.464"/></g><g transform="translate(-.507 -1.195) scale(.00245)" fill="url(#s)"><path d="M1579.09 5000.422V3492.575c754.382-201.169 3770.177-376.732 3770.177-1005.64v1507.847c-754.076 201.17 0 628.907-3770.178 1005.64z" fill="url(#t)"/><path d="M1579.09 5000.422V3492.575c754.382-201.169 3770.177-376.732 3770.177-1005.64v1507.847c-754.076 201.17 0 628.907-3770.178 1005.64z" fill="url(#u)"/></g><g fill="none"><path d="M3.362 11.055V7.36c1.848-.493 9.236-.923 9.236-2.464V8.59c-1.848.493 0 1.54-9.236 2.464z"/><path d="M3.362 11.055V7.36c1.848-.493 9.236-.923 9.236-2.464V8.59c-1.848.493 0 1.54-9.236 2.464z"/></g><g fill="none"><path d="M3.362 11.055V7.36c1.848-.493 9.236-.923 9.236-2.464V8.59c-1.848.493 0 1.54-9.236 2.464z"/><path d="M3.362 11.055V7.36c1.848-.493 9.236-.923 9.236-2.464V8.59c-1.848.493 0 1.54-9.236 2.464z"/></g><g fill="none"><path d="M3.362 11.055V7.36c1.848-.493 9.236-.923 9.236-2.464V8.59c-1.848.493 0 1.54-9.236 2.464z"/><path d="M3.362 11.055V7.36c1.848-.493 9.236-.923 9.236-2.464V8.59c-1.848.493 0 1.54-9.236 2.464z"/></g><g fill="none"><path d="M3.362 11.055V7.36c1.848-.493 9.236-.923 9.236-2.464V8.59c-1.848.493 0 1.54-9.236 2.464z"/><path d="M3.362 11.055V7.36c1.848-.493 9.236-.923 9.236-2.464V8.59c-1.848.493 0 1.54-9.236 2.464z"/></g><g fill="none"><path d="M3.362 11.055V7.36c1.848-.493 9.236-.923 9.236-2.464V8.59c-1.848.493 0 1.54-9.236 2.464z"/><path d="M3.362 11.055V7.36c1.848-.493 9.236-.923 9.236-2.464V8.59c-1.848.493 0 1.54-9.236 2.464z"/></g><g fill="none"><path d="M3.362 11.055V7.36c1.848-.493 9.236-.923 9.236-2.464V8.59c-1.848.493 0 1.54-9.236 2.464z"/><path d="M3.362 11.055V7.36c1.848-.493 9.236-.923 9.236-2.464V8.59c-1.848.493 0 1.54-9.236 2.464z"/></g><g fill="none"><path d="M3.362 11.055V7.36c1.848-.493 9.236-.923 9.236-2.464V8.59c-1.848.493 0 1.54-9.236 2.464z"/><path d="M3.362 11.055V7.36c1.848-.493 9.236-.923 9.236-2.464V8.59c-1.848.493 0 1.54-9.236 2.464z"/></g><g transform="translate(-.507 -1.195) scale(.00245)" fill="url(#v)"><path d="M1579.09 7010.577V5502.731s3770.177-376.732 3770.177-1005.64v1507.847s0 628.907-3770.178 1005.64" fill="url(#w)"/><path d="M1579.09 7010.577V5502.731s3770.177-376.732 3770.177-1005.64v1507.847s0 628.907-3770.178 1005.64" fill="url(#x)"/></g><g fill="none"><path d="M3.362 15.98v-3.695s9.236-.923 9.236-2.463v3.694s0 1.54-9.236 2.463"/><path d="M3.362 15.98v-3.695s9.236-.923 9.236-2.463v3.694s0 1.54-9.236 2.463"/></g><g fill="none"><path d="M3.362 15.98v-3.695s9.236-.923 9.236-2.463v3.694s0 1.54-9.236 2.463"/><path d="M3.362 15.98v-3.695s9.236-.923 9.236-2.463v3.694s0 1.54-9.236 2.463"/></g><g fill="none"><path d="M3.362 15.98v-3.695s9.236-.923 9.236-2.463v3.694s0 1.54-9.236 2.463"/><path d="M3.362 15.98v-3.695s9.236-.923 9.236-2.463v3.694s0 1.54-9.236 2.463"/></g><g fill="none"><path d="M3.362 15.98v-3.695s9.236-.923 9.236-2.463v3.694s0 1.54-9.236 2.463"/><path d="M3.362 15.98v-3.695s9.236-.923 9.236-2.463v3.694s0 1.54-9.236 2.463"/></g><g fill="none"><path d="M3.362 15.98v-3.695s9.236-.923 9.236-2.463v3.694s0 1.54-9.236 2.463"/><path d="M3.362 15.98v-3.695s9.236-.923 9.236-2.463v3.694s0 1.54-9.236 2.463"/></g><g fill="none"><path d="M3.362 15.98v-3.695s9.236-.923 9.236-2.463v3.694s0 1.54-9.236 2.463"/><path d="M3.362 15.98v-3.695s9.236-.923 9.236-2.463v3.694s0 1.54-9.236 2.463"/></g><g fill="none"><path d="M3.362 15.98v-3.695s9.236-.923 9.236-2.463v3.694s0 1.54-9.236 2.463"/><path d="M3.362 15.98v-3.695s9.236-.923 9.236-2.463v3.694s0 1.54-9.236 2.463"/></g><path d="M7 16V9h7v7z" fill="#317ac6"/><text style="line-height:1.25;-inkscape-font-specification:sans-serif" x="445.925" y="634.47" font-weight="400" font-size="35.704" font-family="sans-serif" letter-spacing="0" word-spacing="0" fill="#fff" stroke-width="4.463" transform="translate(-34.994 -46.737) scale(.09803)"><tspan x="445.925" y="634.47" style="-inkscape-font-specification:'sans-serif Bold'" font-weight="700">ST</tspan></text></svg>