<svg xmlns="http://www.w3.org/2000/svg" width="303.932" height="273.331" viewBox="0 0 80.415 72.319"><g font-weight="400" font-size="45.064" font-family="Zapfino" letter-spacing="0" word-spacing="0"><path style="line-height:1.25;-inkscape-font-specification:Zapfino;font-variant-ligatures:normal;font-variant-caps:normal;font-variant-numeric:normal;font-feature-settings:normal;text-align:start" d="M38.777 1.058c-1.802 0-3.455.226-4.957.676-1.427.45-2.704.977-3.83 1.577a15.907 15.907 0 00-2.817 2.029c-.75.676-1.352 1.276-1.802 1.802-1.277 1.502-2.367 3.23-3.268 5.182-.826 1.953-1.239 3.906-1.239 5.859 0 1.952.375 3.679 1.126 5.18a11.24 11.24 0 00-.878.624c-1.428 1.127-2.742 2.516-3.944 4.168-1.127 1.578-2.14 3.343-3.042 5.296a50.22 50.22 0 00-2.365 5.858c.15.45.3.75.45.901.226.075.413-.038.564-.338 1.577-3.83 3.305-6.872 5.182-9.126 1.678-2.08 3.536-3.709 5.574-4.89a54.95 54.95 0 001.952 2.692c1.728 2.178 2.892 3.943 3.493 5.295.6 1.277.9 2.553.9 3.83 0 2.629-.825 4.92-2.478 6.873-1.577 1.877-3.53 3.342-5.858 4.393-1.127.526-2.403.939-3.83 1.24a24.634 24.634 0 01-4.056.337c-3.606 0-6.271-.788-7.999-2.365-1.727-1.653-2.591-3.53-2.591-5.633 0-.676.112-1.353.338-2.028 0-.376-.113-.564-.338-.564-.226 0-.338.075-.338.226a363.28 363.28 0 00-1.127 4.056c-.376 1.577-.713 3.004-1.014 4.28.075.226.263.451.563.676.3.15.639.338 1.014.564a18.448 18.448 0 004.62 1.465c1.727.3 3.454.45 5.182.45 4.13 0 7.886-.751 11.266-2.253 1.352-.601 2.704-1.39 4.056-2.366a24.343 24.343 0 003.83-3.492c1.202-1.277 2.141-2.667 2.817-4.169.751-1.502 1.127-3.042 1.127-4.619 0-.901-.076-1.652-.226-2.253a7.55 7.55 0 00-.788-2.028c-.376-.751-.902-1.54-1.578-2.366a64.03 64.03 0 00-2.366-3.267c-.293-.38-.58-.768-.861-1.164a29.005 29.005 0 013.25-.58c3.154-.376 6.759-.564 10.815-.564h3.718c.75 0 .938.339.563 1.015A325.315 325.315 0 0142.404 33a2662.2 2662.2 0 01-5.858 10.027 521.444 521.444 0 01-6.084 10.252 603.056 603.056 0 01-6.083 10.14 14.429 14.429 0 00-1.24 2.365c-.3.751-.45 1.427-.45 2.028 0 .976.225 1.728.676 2.253a4.479 4.479 0 001.915 1.127c.826.3 1.728.45 2.704.45a45.33 45.33 0 003.267.113c1.352 0 2.816-.037 4.393-.112a36.71 36.71 0 004.282-.226c.45-.3.563-.6.338-.9a6.997 6.997 0 01-1.352.112H37.56c-1.652 0-3.004-.113-4.056-.338-.976-.3-1.727-.639-2.253-1.014-.526-.45-.864-.94-1.014-1.465a7.407 7.407 0 01-.225-1.803c.075-.9.3-1.877.676-2.929a37.624 37.624 0 011.69-3.605 841.72 841.72 0 019.688-17.124 464.145 464.145 0 0111.717-18.702c.526-.75 1.315-1.127 2.366-1.127 1.127-.075 2.403-.075 3.83 0 1.427 0 2.78-.037 4.057-.113 3.605-.15 6.647-.675 9.125-1.577 2.554-.901 4.469-2.403 5.745-4.506.3-.6.451-1.126.451-1.577 0-.6-.113-1.052-.338-1.352-.45-.977-1.126-1.953-2.028-2.93-.15-.15-.263-.225-.338-.225-.225 0-.338.15-.338.45 0 .151.038.264.113.339.075.15.113.413.113.788 0 1.427-.564 2.742-1.69 3.944-1.127 1.202-2.254 2.103-3.38 2.704-3.605 1.952-8.412 2.966-14.42 3.041h-11.38a189.621 189.621 0 00-6.535-.112h-6.985a30.652 30.652 0 00-4.318.148 41.667 41.667 0 01-1.224-2.122 13.103 13.103 0 01-1.577-6.31c0-2.928.938-5.256 2.816-6.984 1.878-1.802 4.319-2.704 7.323-2.704 2.854 0 4.92.601 6.196 1.803 1.352 1.202 2.028 2.478 2.028 3.83 0 .676-.112 1.24-.337 1.69.225.376.488.488.788.338.225-.826.526-1.84.901-3.042.451-1.201.826-2.177 1.127-2.929 0-.525-.188-1.052-.563-1.577-.902-.977-1.916-1.615-3.043-1.915a10.97 10.97 0 00-3.492-.564z" fill="#7e0a1d" stroke="#7e0a1d" stroke-width="1.127"/><path d="M39.835 0c-1.802 0-3.454.225-4.956.676-1.427.45-2.705.976-3.831 1.577a15.858 15.858 0 00-2.816 2.028c-.752.676-1.352 1.277-1.803 1.803-1.277 1.502-2.366 3.23-3.267 5.182-.827 1.953-1.24 3.906-1.24 5.859 0 1.951.375 3.678 1.126 5.18a11.35 11.35 0 00-.878.624c-1.427 1.126-2.742 2.516-3.944 4.168-1.126 1.577-2.14 3.343-3.041 5.295a50.22 50.22 0 00-2.366 5.858c.15.451.3.751.45.902.226.075.414-.038.564-.338 1.577-3.83 3.305-6.873 5.183-9.126 1.677-2.08 3.535-3.71 5.573-4.89.571.844 1.221 1.74 1.953 2.691 1.727 2.178 2.891 3.944 3.492 5.296.6 1.276.901 2.553.901 3.83 0 2.629-.826 4.92-2.478 6.872-1.577 1.878-3.53 3.342-5.859 4.394-1.126.526-2.403.939-3.83 1.239a24.633 24.633 0 01-4.056.338c-3.605 0-6.271-.789-7.999-2.366-1.727-1.652-2.591-3.53-2.591-5.633 0-.675.113-1.352.338-2.028 0-.375-.113-.563-.338-.563-.225 0-.338.075-.338.225a385.37 385.37 0 00-1.127 4.056 2444.28 2444.28 0 00-1.014 4.281c.076.226.263.45.564.676.3.15.638.338 1.014.563a18.448 18.448 0 004.619 1.465c1.727.3 3.455.451 5.182.451 4.131 0 7.886-.751 11.266-2.254 1.352-.6 2.704-1.389 4.056-2.365a24.343 24.343 0 003.83-3.493c1.202-1.276 2.141-2.666 2.817-4.168.751-1.503 1.127-3.042 1.127-4.62 0-.9-.075-1.651-.225-2.252a7.55 7.55 0 00-.789-2.029c-.376-.75-.902-1.54-1.578-2.365-.6-.902-1.39-1.99-2.365-3.267a37.66 37.66 0 01-.862-1.164 29.007 29.007 0 013.25-.58c3.154-.376 6.76-.564 10.815-.564h3.718c.751 0 .939.338.563 1.014a325.324 325.324 0 01-5.182 9.464 2803.09 2803.09 0 01-5.858 10.027A521.433 521.433 0 0131.52 52.22a603.067 603.067 0 01-6.084 10.139 14.429 14.429 0 00-1.24 2.366c-.3.75-.45 1.427-.45 2.028 0 .976.225 1.727.676 2.253a4.479 4.479 0 001.915 1.127c.826.3 1.728.45 2.704.45 1.052.075 2.14.113 3.267.113a92.95 92.95 0 004.394-.113 36.94 36.94 0 004.281-.225c.45-.3.564-.6.338-.901a6.997 6.997 0 01-1.352.112h-1.352c-1.652 0-3.004-.112-4.056-.338-.976-.3-1.727-.638-2.253-1.013-.525-.451-.863-.94-1.014-1.465a7.407 7.407 0 01-.225-1.803c.075-.901.3-1.877.676-2.929a37.625 37.625 0 011.69-3.605 841.75 841.75 0 019.689-17.124A464.15 464.15 0 0154.84 22.59c.526-.751 1.315-1.127 2.367-1.127 1.126-.075 2.403-.075 3.83 0a69.3 69.3 0 004.056-.113c3.605-.15 6.647-.676 9.125-1.577 2.554-.901 4.469-2.403 5.746-4.506.3-.601.45-1.127.45-1.577 0-.601-.112-1.052-.338-1.353-.45-.976-1.126-1.952-2.027-2.929-.15-.15-.263-.225-.338-.225-.226 0-.338.15-.338.45 0 .15.037.263.112.339.075.15.113.413.113.788 0 1.427-.563 2.742-1.69 3.944-1.126 1.201-2.253 2.102-3.38 2.703-3.605 1.953-8.412 2.967-14.42 3.042H46.73a189.603 189.603 0 00-6.534-.113H33.21a30.585 30.585 0 00-4.32.15 41.661 41.661 0 01-1.223-2.123 13.103 13.103 0 01-1.577-6.31c0-2.929.939-5.257 2.816-6.984 1.878-1.803 4.32-2.704 7.324-2.704 2.854 0 4.919.601 6.196 1.803 1.351 1.201 2.028 2.478 2.028 3.83 0 .676-.113 1.24-.338 1.69.225.375.488.488.788.338.226-.826.526-1.84.902-3.042.45-1.202.826-2.178 1.126-2.929 0-.526-.188-1.052-.563-1.578-.901-.976-1.916-1.614-3.042-1.915A10.97 10.97 0 0039.835 0z" style="line-height:1.25;-inkscape-font-specification:Zapfino;font-variant-ligatures:normal;font-variant-caps:normal;font-variant-numeric:normal;font-feature-settings:normal;text-align:start" fill="#dd3734"/></g></svg>